# xmcd CD database file
#
# Track frame offsets:
#	150
#	63338
#	116591
#	167293
#	213008
#	287623
#
# Disc length: 4186 seconds
#
# Revision: 0
# Processed by: cddbd v1.5.2PL0 Copyright (c) Steve Scherf et al.
# Submitted via: CDex 1.50
#
DISCID=48105806
DTITLE=Art Pepper - The complete Village Vanguard sessions vol.1 cd1 first set (first show) thursday, july 28, 1977
DYEAR=1977
DGENRE=Jazz
TTITLE0=Blues for Heard
TTITLE1=Scrapple from the apple
TTITLE2=But beautiful
TTITLE3=My friend John
TTITLE4=Cherokee
TTITLE5=Blues for Heard
EXTD=YEAR: 1977
EXTT0=
EXTT1=
EXTT2=
EXTT3=
EXTT4=
EXTT5=
PLAYORDER=
